<svg version="1.2" xmlns="http://www.w3.org/2000/svg" viewBox="0 0 92 55" width="92" height="55">
	<title>New Project</title>
	<defs>
		<radialGradient id="g1" cx="0" cy="0" r="1" gradientUnits="userSpaceOnUse" gradientTransform="matrix(49.433,0,0,49.433,44.131,47.486)">
			<stop offset="0" stop-color="#f47f4e"/>
			<stop offset="1" stop-color="#ed3b96"/>
		</radialGradient>
	</defs>
	<style>
		.s0 { fill: url(#g1) } 
	</style>
	<path id="&lt;Compound Path&gt;" class="s0" d="m46 42.2c-3.9 0-7.1 3.1-7.1 7.1q0 1.3 0.5 2.5c1 2.7 3.6 4.5 6.6 4.5 3 0 5.6-1.8 6.6-4.5q0.5-1.2 0.5-2.5c0-4-3.2-7.1-7.1-7.1zm20-2.9l20.8-20.8-10.1-10.1-23.6 23.6v-32h-14.2v32.2l-23.2-23.1-10 10.1 20.1 20.1h-25.8v14.3h35.7q-0.8-1.9-0.8-4c0-6.2 5-11.1 11.1-11.1 6.1 0 11.1 4.9 11.1 11.1q0 2.1-0.8 4h35.7v-14.3z"/>
</svg>